#!OML:ASF Y:\EmotionMaleHayes\Project 1\Capture day 1\Session 1\Male1.ASF
:FULLY-SPECIFIED
:DEGREES
2370
root -23.2341 17.1621 13.1857 181.35 -26.264 172.078
lowerback 3.98589 0.217323 -18.82
upperback 5.5522 -0.899842 -5.7957
thorax 3.87888 -1.4721 4.21569
lowerneck -24.1851 -0.0922167 -0.937789
upperneck 40.7793 -7.20214 7.73046
head 20.8095 -2.88616 1.94032
rclavicle 1.27222e-014 -3.02153e-014
rhumerus -84.1137 21.4727 -100.207
rradius 78.7016
rwrist -26.4716
rhand 3.80488 -43.8831
rfingers 7.12502
rthumb 29.2294 -71.6072
lclavicle 1.27222e-014 -3.02153e-014
lhumerus 15.7741 -41.989 59.6301
lradius 80.2527
lwrist 3.49929
lhand -30.1944 -30.6063
lfingers 7.12502
lthumb -3.50514 -0.655371
rfemur -8.48794 -20.7729 13.1345
rtibia 18.7691
rfoot -18.8579 -18.1401
rtoes 38.0356
lfemur 22.3311 6.24726 -22.6226
ltibia 13.9139
lfoot -11.9905 19.5865
ltoes -9.40184
2371
root -23.2987 17.157 13.0583 181.645 -25.8204 171.751
lowerback 3.49783 -0.045403 -18.9237
upperback 5.19843 -1.11677 -5.58338
thorax 3.82973 -1.53671 4.49968
lowerneck -24.2233 -0.0384181 -1.21032
upperneck 41.1235 -7.16349 7.75524
head 21.0693 -2.94358 2.01353
rclavicle 1.63003e-014 -9.54166e-015
rhumerus -84.6302 21.9264 -99.7787
rradius 79.6244
rwrist -27.1797
rhand 5.89898 -44.4157
rfingers 7.12502
rthumb 31.2271 -71.7737
lclavicle 1.63003e-014 -9.54166e-015
lhumerus 14.735 -42.5967 60.3093
lradius 81.1012
lwrist 4.42098
lhand -32.1227 -32.2439
lfingers 7.12502
lthumb -5.36725 -2.33182
rfemur -8.48794 -20.7729 13.1345
rtibia 18.7691
rfoot -18.8579 -18.1401
rtoes 38.0356
lfemur 22.3429 6.21938 -23.0198
ltibia 14.4918
lfoot -12.15 19.5205
ltoes -6.35973
2372
root -23.3632 17.1616 12.9324 182.181 -25.3863 170.972
lowerback 3.03348 -0.283483 -19.4661
upperback 4.80337 -1.34098 -5.4442
thorax 3.741 -1.62241 4.93316
lowerneck -23.9973 0.0790862 -1.84255
upperneck 41.1018 -7.0289 8.38415
head 21.0557 -2.94544 2.48142
rclavicle 9.10434e-014 1.1609e-013
rhumerus -84.8871 22.2471 -99.2463
rradius 80.3365
rwrist -27.5963
rhand 8.43551 -44.5572
rfingers 7.12502
rthumb 33.641 -71.4199
lclavicle 9.10434e-014 1.1609e-013
lhumerus 13.5461 -43.2447 61.0862
lradius 81.9028
lwrist 5.27798
lhand -33.9277 -34.0232
lfingers 7.12502
lthumb -7.1098 -4.16258
rfemur -8.48794 -20.7729 13.1345
rtibia 18.7691
rfoot -18.8579 -18.1401
rtoes 38.0356
lfemur 22.0811 6.52078 -23.7073
ltibia 15.3588
lfoot -11.6477 19.254
ltoes -4.59947
2373
root -23.4289 17.1672 12.8053 182.628 -24.9794 170.21
lowerback 2.70838 -0.371341 -19.8386
upperback 4.39393 -1.41696 -5.43729
thorax 3.50971 -1.62056 5.14108
lowerneck -23.9398 0.261341 -1.47178
upperneck 41.4509 -6.93905 8.09304
head 21.2354 -2.92135 2.2882
rclavicle -4.67144e-014 9.70069e-014
rhumerus -85.0741 21.9732 -98.6947
rradius 80.9649
rwrist -27.71
rhand 11.1762 -44.2338
rfingers 7.12502
rthumb 36.2411 -70.4907
lclavicle -4.67144e-014 9.70069e-014
lhumerus 12.445 -44.3424 61.7624
lradius 82.6392
lwrist 6.01325
lhand -35.3958 -35.7777
lfingers 7.12502
lthumb -8.52671 -5.96988
rfemur -8.48794 -20.7729 13.1345
rtibia 18.7691
rfoot -18.8579 -18.1401
rtoes 38.0356
lfemur 21.7834 7.02796 -24.242
ltibia 16.3665
lfoot -10.4106 19.0129
ltoes -5.12499
2374
root -23.4955 17.1684 12.6702 182.845 -24.4137 169.805
lowerback 2.29442 -0.199409 -19.6648
upperback 4.03255 -1.12346 -5.57478
thorax 3.26604 -1.42407 4.91074
lowerneck -23.5803 0.197816 -0.821613
upperneck 41.5272 -7.31526 7.8008
head 21.1689 -3.02554 1.91819
rclavicle 3.67752e-014 -9.85972e-014
rhumerus -85.0793 20.9249 -98.1568
rradius 81.5543
rwrist -27.7363
rhand 13.4163 -44.4572
rfingers 7.12502
rthumb 38.3589 -70.1579
lclavicle 3.67752e-014 -9.85972e-014
lhumerus 11.6025 -46.136 62.0889
lradius 83.4372
lwrist 6.80433
lhand -36.61 -37.6521
lfingers 7.12502
lthumb -9.69834 -7.89536
rfemur -8.48794 -20.7729 13.1345
rtibia 18.7691
rfoot -18.8579 -18.1401
rtoes 38.0356
lfemur 21.5483 7.60196 -24.4086
ltibia 17.4572
lfoot -8.86572 19.0149
ltoes -6.98804
2375
root -23.5655 17.1676 12.5256 182.695 -23.8013 170.074
lowerback 1.91053 -0.884175 -19.5495
upperback 3.68263 -1.84169 -4.6905
thorax 3.31419 -1.70831 5.78961
lowerneck -23.8125 0.520195 -1.84022
upperneck 42.0507 -6.12842 7.24358
head 21.4726 -2.84314 2.1176
rclavicle 1.19271e-014 -1.35174e-013
rhumerus -85.1179 23.1962 -97.2991
rradius 82.1493
rwrist -28.2813
rhand 15.4163 -45.2009
rfingers 7.12502
rthumb 40.2433 -70.3531
lclavicle 1.19271e-014 -1.35174e-013
lhumerus 8.41178 -45.265 64.5883
lradius 84.2929
lwrist 7.27622
lhand -37.7735 -39.9596
lfingers 7.12502
lthumb -10.8208 -10.2584
rfemur -8.48794 -20.7729 13.1345
rtibia 18.7691
rfoot -18.8579 -18.1401
rtoes 38.0356
lfemur 21.3939 8.22428 -23.8261
ltibia 18.7316
lfoot -7.11678 18.9938
ltoes -9.56079
2376
root -23.6371 17.1695 12.3861 182.572 -23.2474 170.333
lowerback 1.5252 -0.7963 -18.6888
upperback 3.37708 -1.62414 -4.64408
thorax 3.1123 -1.52473 5.39232
lowerneck -23.4789 0.510657 -1.42154
upperneck 42.2023 -6.46755 7.1762
head 21.497 -2.94994 1.91458
rclavicle 3.18055e-014 1.59028e-015
rhumerus -84.8037 22.3347 -96.559
rradius 82.535
rwrist -28.5771
rhand 17.3619 -45.8115
rfingers 7.12502
rthumb 42.0701 -70.378
lclavicle 3.18055e-014 1.59028e-015
lhumerus 6.73684 -46.773 65.3607
lradius 85.2166
lwrist 7.89865
lhand -38.6562 -42.302
lfingers 7.12502
lthumb -11.6722 -12.6472
rfemur -8.48794 -20.7729 13.1345
rtibia 18.7691
rfoot -18.8579 -18.1401
rtoes 38.0356
lfemur 21.0151 8.70809 -23.282
ltibia 20.3885
lfoot -5.88981 18.696
ltoes -9.19045
2377
root -23.7024 17.1726 12.2496 182.442 -22.7498 170.522
lowerback 1.3515 -0.953505 -18.1162
upperback 3.02435 -1.77342 -4.35514
thorax 2.85238 -1.51918 5.40269
lowerneck -22.8607 0.876307 -1.13192
upperneck 42.1717 -5.94551 6.97252
head 21.2064 -2.76925 1.87551
rclavicle 4.9398e-014 7.31528e-014
rhumerus -84.6202 22.2609 -95.6864
rradius 82.8892
rwrist -28.7687
rhand 18.8885 -46.5573
rfingers 7.12502
rthumb 43.4983 -70.6248
lclavicle 4.9398e-014 7.31528e-014
lhumerus 4.13523 -47.4067 67.1144
lradius 85.9974
lwrist 8.11213
lhand -39.1037 -44.3917
lfingers 7.12502
lthumb -12.1036 -14.7618
rfemur -8.48794 -20.7729 13.1345
rtibia 18.7691
rfoot -18.8579 -18.1401
rtoes 38.0356
lfemur 20.4467 9.02352 -22.8031
ltibia 22.4014
lfoot -5.10962 18.4206
ltoes -5.73183
2378
root -23.7697 17.1762 12.1146 182.204 -22.2394 170.808
lowerback 1.27343 -1.15631 -17.6276
upperback 2.70864 -1.98395 -3.83651
thorax 2.60877 -1.54645 5.70068
lowerneck -22.5801 1.25312 -1.3745
upperneck 42.3872 -5.21823 6.81543
head 21.1979 -2.5904 2.01314
rclavicle 7.48424e-014 -3.02153e-014
rhumerus -83.8223 22.5852 -94.6119
rradius 82.7077
rwrist -29.0079
rhand 20.1156 -47.1866
rfingers 7.12502
rthumb 44.6427 -70.8255
lclavicle 7.48424e-014 -3.02153e-014
lhumerus 1.21622 -47.692 69.4778
lradius 86.6359
lwrist 8.04804
lhand -39.2877 -46.1746
lfingers 7.12502
lthumb -12.2811 -16.5552
rfemur -8.48794 -20.7729 13.1345
rtibia 18.7691
rfoot -18.8579 -18.1401
rtoes 38.0356
lfemur 19.7843 9.41186 -22.1947
ltibia 24.6485
lfoot -4.1335 18.3196
ltoes -1.99996
2379
root -23.8349 17.1794 11.9826 181.949 -21.643 170.999
lowerback 1.21282 -1.21238 -17.0481
upperback 2.50952 -2.01646 -3.50968
thorax 2.42723 -1.50663 5.74366
lowerneck -22.5922 1.26733 -1.21944
upperneck 42.6689 -5.18089 6.37456
head 21.3663 -2.6352 1.76224
rclavicle -3.35946e-014 0
rhumerus -82.7284 22.4522 -93.5163
rradius 82.4893
rwrist -29.2859
rhand 21.3957 -47.3845
rfingers 7.12502
rthumb 45.833 -70.5482
lclavicle -3.35946e-014 0
lhumerus -1.44583 -48.1243 71.6279
lradius 87.0748
lwrist 7.61396
lhand -39.274 -47.7353
lfingers 7.12502
lthumb -12.2679 -18.1152
rfemur -8.48794 -20.7729 13.1345
rtibia 18.7691
rfoot -18.8579 -18.1401
rtoes 38.0356
lfemur 18.9875 9.87599 -21.7138
ltibia 27.1461
lfoot -2.46171 18.061
ltoes -1.12219
2380
root -23.8982 17.1834 11.8542 181.671 -21.005 171.375
lowerback 1.14227 -1.22617 -16.2692
upperback 2.35844 -1.98227 -3.15463
thorax 2.28192 -1.43573 5.70643
lowerneck -22.5308 1.29677 -0.878774
upperneck 42.7176 -5.05536 5.84681
head 21.3266 -2.60642 1.4528
rclavicle -2.1419e-014 -3.49861e-014
rhumerus -81.3269 22.1233 -92.3493
rradius 82.0601
rwrist -29.5618
rhand 22.5059 -47.7143
rfingers 7.12502
rthumb 46.8619 -70.4411
lclavicle -2.1419e-014 -3.49861e-014
lhumerus -4.33245 -48.3024 74.0814
lradius 87.4342
lwrist 7.04077
lhand -38.7864 -49.1663
lfingers 7.12502
lthumb -11.7976 -19.5186
rfemur -8.48794 -20.7729 13.1345
rtibia 18.7691
rfoot -18.8579 -18.1401
rtoes 38.0356
lfemur 17.9705 10.2372 -21.159
ltibia 29.8504
lfoot -0.0868975 17.6844
ltoes -3.52831
